<?xml version="1.0" standalone="no"?>
<!DOCTYPE svg PUBLIC "-//W3C//DTD SVG 20010904//EN"
 "http://www.w3.org/TR/2001/REC-SVG-20010904/DTD/svg10.dtd">
<svg version="1.0" xmlns="http://www.w3.org/2000/svg"
 width="688.000000pt" height="688.000000pt" viewBox="0 0 688.000000 688.000000"
 preserveAspectRatio="xMidYMid meet">
<metadata>
Created by potrace 1.11, written by Peter Selinger 2001-2013
</metadata>
<g transform="translate(0.000000,688.000000) scale(0.100000,-0.100000)"
fill="#000000" stroke="none">
<path d="M1320 3442 l0 -1210 1061 -617 c925 -538 1064 -616 1083 -607 11 6
489 280 1061 609 l1040 598 3 1212 2 1211 -285 -161 -285 -162 -2 -888 -3
-889 -630 -362 -630 -363 -3 889 c-1 488 -4 888 -6 888 -2 0 -64 -34 -137 -76
-74 -42 -138 -77 -144 -77 -5 0 -69 35 -142 77 -73 42 -135 76 -138 76 -3 0
-5 -403 -5 -895 0 -492 -2 -895 -5 -895 -3 0 -289 169 -635 376 l-630 377 0
886 0 887 -277 159 c-153 87 -281 160 -285 162 -5 2 -8 -540 -8 -1205z"/>
</g>
</svg>
